<svg id="Capa_1" data-name="Capa 1" xmlns="http://www.w3.org/2000/svg" xmlns:xlink="http://www.w3.org/1999/xlink" viewBox="0 0 441.98 392.75"><defs><style>.cls-1,.cls-11,.cls-8{fill:none;}.cls-2,.cls-5{fill-rule:evenodd;}.cls-3{clip-path:url(#clip-path);}.cls-4{fill:url(#Degradado_sin_nombre);}.cls-5,.cls-9{fill:#9f1137;}.cls-6{clip-path:url(#clip-path-2);}.cls-7{fill:url(#Degradado_sin_nombre_2);}.cls-11,.cls-8{stroke:#fff;stroke-miterlimit:10;}.cls-8{stroke-width:2.01px;}.cls-10{fill:#fff;}.cls-11{stroke-width:0.23px;}.cls-12{clip-path:url(#clip-path-3);}.cls-13{fill:url(#Degradado_sin_nombre_3);}</style><clipPath id="clip-path"><polygon class="cls-1" points="218.01 369.09 211.46 370.29 215.98 374.89 215.15 381.37 221.03 378.58 226.97 381.37 226.07 374.96 230.66 370.29 224.19 369.16 221.03 363.37 218.01 369.09"/></clipPath><linearGradient id="Degradado_sin_nombre" x1="-49.63" y1="422.91" x2="-48.63" y2="422.91" gradientTransform="matrix(19.21, 0, 0, -19.21, 1164.51, 8494.42)" gradientUnits="userSpaceOnUse"><stop offset="0" stop-color="#aa8459"/><stop offset="0.08" stop-color="#aa8459"/><stop offset="0.46" stop-color="#f2e5a0"/><stop offset="0.64" stop-color="#cdb378"/><stop offset="0.97" stop-color="#a78157"/><stop offset="1" stop-color="#a78157"/></linearGradient><clipPath id="clip-path-2"><path class="cls-1" d="M204.72,102.32a24.52,24.52,0,0,1-2.65-2.56,23.34,23.34,0,0,1-2.13-3.08,16.71,16.71,0,0,1-1.8-3.93,20.9,20.9,0,0,1-.94-4.26,18.86,18.86,0,0,1-.08-3.76,10.62,10.62,0,0,1,.34-2.65,3.6,3.6,0,0,1,.26-1,0,0,0,0,1,.06,0,.05.05,0,0,1,0,.06,3.76,3.76,0,0,0-.09,1,11.89,11.89,0,0,0,0,2.55,24.25,24.25,0,0,0,1.36,7.65,23,23,0,0,0,1.53,3.83c.14.24.28.48.41.72.51.9,1,1.75,1.46,2.43.77,1,1.23,1.66,1.62,2.12a7.78,7.78,0,0,1,.68.77,0,0,0,0,1,0,.06l0,0h0m-1.36,2.9a6.19,6.19,0,0,1-.94-.78,15.84,15.84,0,0,1-2.31-2.13,21.59,21.59,0,0,1-2.64-3.58,16.92,16.92,0,0,1-1.2-2.14q-.26-.65-.51-1.23c-.17-.4-.34-.81-.51-1.24a24.78,24.78,0,0,1-1.11-5,18.68,18.68,0,0,1-.17-4.36,14.92,14.92,0,0,1,.23-2.41c0-.27.08-.52.11-.74.17-.68.25-1.11.26-1.11a0,0,0,0,1,0,0h0a0,0,0,0,1,0,0s0,.44-.08,1.2a16.9,16.9,0,0,0,0,3,28.87,28.87,0,0,0,1.61,9,18.42,18.42,0,0,0,.94,2.29,16.85,16.85,0,0,0,1.1,2.21,20.12,20.12,0,0,0,2.38,3.58c.65.86,1.25,1.55,1.72,2.1l.24.28.85.85a.06.06,0,0,1,0,.07l0,0h0m-1.45,2.89s-.35-.26-1-.85a15.83,15.83,0,0,1-2.64-2.39l-.07-.08a22.22,22.22,0,0,1-3.09-3.93,19.11,19.11,0,0,1-1.45-2.56,26.75,26.75,0,0,1-1.19-2.73,29,29,0,0,1-1.37-5.63,21.51,21.51,0,0,1-.25-5.13,17.93,17.93,0,0,1,.42-3.58L191.5,80a0,0,0,0,1,.06,0,.07.07,0,0,1,0,.06,6.82,6.82,0,0,0-.09,1.35,21.43,21.43,0,0,0-.08,3.49,36.51,36.51,0,0,0,.42,4.94,33.53,33.53,0,0,0,1.53,5.53,23.73,23.73,0,0,0,1.11,2.63c.42.84.85,1.7,1.27,2.47a28.2,28.2,0,0,0,2.9,4.08c.89,1.05,1.75,2,2.38,2.64l.93.94a.06.06,0,0,1,0,.07h-.07m-1.36,2.9a12.27,12.27,0,0,1-1.2-.86,34.45,34.45,0,0,1-3.07-2.72,33.88,33.88,0,0,1-3.67-4.44,39.11,39.11,0,0,1-3-6A29.35,29.35,0,0,1,188,90.61a27.05,27.05,0,0,1-.35-5.71,21.78,21.78,0,0,1,.39-3.83l0-.26a10.33,10.33,0,0,1,.26-1.11.53.53,0,0,1,.1-.37s0,0,.05,0a.05.05,0,0,1,0,.05s-.08.52-.17,1.53a28.18,28.18,0,0,0-.08,4,34.45,34.45,0,0,0,.51,5.62,28.53,28.53,0,0,0,1.78,6.2,33.1,33.1,0,0,0,2.81,5.79A34.44,34.44,0,0,0,196.7,107c.85,1,1.65,1.76,2.29,2.38l.51.51c.76.67,1.11,1,1.11,1a.06.06,0,0,1,0,.07l0,0h0m-1.37,2.89-.12-.1-.21-.15-.26-.16a5.8,5.8,0,0,1-.77-.52l-.5-.4a30,30,0,0,1-3-2.59,36.78,36.78,0,0,1-4.09-5c-.23-.39-.46-.77-.71-1.17-.39-.64-.8-1.3-1.17-2-.47-1-1-2.19-1.53-3.41a45.16,45.16,0,0,1-2-7.09c-.18-1.19-.26-2.32-.35-3.41,0-.38,0-.75,0-1.11a18.11,18.11,0,0,1,0-2,26.76,26.76,0,0,1,.4-4.33l0-.19c0-.24.1-.46.15-.65a2.87,2.87,0,0,0,.1-.54,2.11,2.11,0,0,0,.09-.42,0,0,0,1,1,.1,0h0a12.23,12.23,0,0,1-.17,1.71,34.59,34.59,0,0,0-.09,4.42,34.24,34.24,0,0,0,.6,6.3,33.59,33.59,0,0,0,2,6.89c.42,1.18.94,2.3,1.44,3.38v0c.09.17.18.33.26.5a22.74,22.74,0,0,0,1.52,2.56,31.6,31.6,0,0,0,3.83,5,28,28,0,0,0,3.15,3.15c.58.52,1,.84,1.15,1l.13.11a0,0,0,0,1,0,.07h-.07m-1.36,2.9-.11-.1-.23-.15a8.11,8.11,0,0,1-.82-.52l-.37-.25a32,32,0,0,1-3.84-3.24,37.53,37.53,0,0,1-4.61-5.38l-.34-.55c-.59-1-1.2-2-1.7-3a30.51,30.51,0,0,1-1.8-3.75,38.5,38.5,0,0,1-2.21-7.84,34.78,34.78,0,0,1-.43-7.08,24.13,24.13,0,0,1,.51-5,13.29,13.29,0,0,1,.26-1.36,1.76,1.76,0,0,0,.06-.25,1.06,1.06,0,0,0,0-.17s0,0,0,0h0s0,0,0,0a1.09,1.09,0,0,1,0,.19c0,.27-.09.86-.15,1.69A28.07,28.07,0,0,0,182,85a38.69,38.69,0,0,0,3,14.54,29.24,29.24,0,0,0,1.62,3.75,26.56,26.56,0,0,0,2,3.4,32.09,32.09,0,0,0,4.25,5.45,40.74,40.74,0,0,0,3.57,3.4l1.34,1.1.12.1s0,0,0,.06a0,0,0,0,1,0,0h0m-1.36,3-.27-.23-.16-.11-.27-.16a9.71,9.71,0,0,1-1-.69,35.81,35.81,0,0,1-4.26-3.5,36.31,36.31,0,0,1-5-5.88,46.05,46.05,0,0,1-4.27-7.85,31.57,31.57,0,0,1-1.2-3.47c-.08-.27-.16-.53-.25-.79a43.38,43.38,0,0,1-1-4.35,42.16,42.16,0,0,1-.51-7.76,32.35,32.35,0,0,1,.39-4.56c0-.32.09-.62.12-.9a8.13,8.13,0,0,1,.26-1.16l.08-.29a1.76,1.76,0,0,1,.09-.6.05.05,0,0,1,.06,0,.07.07,0,0,1,0,.06s-.09.78-.26,2.13a32.84,32.84,0,0,0-.17,5.36c0,1.13.08,2.26.16,3.45v.21l.06.41c.15,1.16.31,2.37.54,3.59a40.29,40.29,0,0,0,1,4.16,33.12,33.12,0,0,0,1.53,4.17,36.47,36.47,0,0,0,4,7.75,45.48,45.48,0,0,0,4.85,6,34.34,34.34,0,0,0,3.91,3.66l1.35,1.13a2.17,2.17,0,0,1,.27.24,0,0,0,0,1,0,.07h0s0,0,0,0m-1.36,2.9-.27-.21-.24-.13-.06,0c-.26-.18-.75-.5-1.31-.9a41.31,41.31,0,0,1-4.6-3.75,43.82,43.82,0,0,1-10.24-14.84c-.52-1.33-1.17-3.07-1.62-4.69s-.77-3.1-1.11-4.6a43.57,43.57,0,0,1-.59-8.45c0-1.28.08-2.4.17-3.32s.23-1.69.31-2.38l0-.27c.13-.53.21-.94.28-1.31l.06-.31c.09-.34.17-.6.17-.6s0,0,.06,0,0,0,0,.05-.17.87-.34,2.3c0,.17,0,.35,0,.54a52,52,0,0,0-.13,5.33c0,1.19.08,2.58.17,3.91.14,1.15.34,2.35.56,3.62l.12.73c.33,1.5.68,3.06,1.11,4.59a47.92,47.92,0,0,0,1.7,4.51,43.71,43.71,0,0,0,4.42,8.34,43.22,43.22,0,0,0,5.28,6.47c1.41,1.4,2.87,2.75,4.34,4l1.51,1.15a1.63,1.63,0,0,1,.28.21,0,0,0,0,1,0,.07l0,0h0m-1.36,2.9a3.13,3.13,0,0,1-.52-.35l-.5-.33a12.3,12.3,0,0,1-1-.69l-.45-.31c-.52-.37-1.11-.79-1.77-1.31-.86-.69-1.79-1.45-2.81-2.39a43.74,43.74,0,0,1-6-6.82,47.79,47.79,0,0,1-5.12-9.12c-.72-1.71-1.33-3.59-1.79-5s-.78-3.08-1.09-4.57l-.1-.46a42.87,42.87,0,0,1-.68-9c0-1.35.08-2.55.17-3.67.06-.41.11-.78.16-1.14.08-.64.15-1.19.26-1.68a12,12,0,0,1,.31-1.57l0-.13c0-.09,0-.17,0-.24,0-.28,0-.43,0-.44a0,0,0,0,1,0,0h0a0,0,0,0,1,.05,0,3.2,3.2,0,0,1,0,.44c-.05.42-.12,1.12-.22,2-.07.68-.16,1.57-.25,2.72v3.66a38,38,0,0,0,.25,4.17,26.59,26.59,0,0,0,.46,3.33c.07.44.15.89.22,1.35l.09.41c.31,1.5.64,3,1.1,4.52.15.43.3.85.44,1.27.43,1.26.84,2.46,1.35,3.67a50.68,50.68,0,0,0,4.94,9,54.52,54.52,0,0,0,5.7,6.89,56.69,56.69,0,0,0,4.76,4.26c1.27.92,2,1.44,2,1.44a.07.07,0,0,1,0,.07s0,0-.05,0h0m-1.36,2.89a4.76,4.76,0,0,1-.6-.34l-.55-.37c-.3-.19-.68-.44-1.07-.74s-1-.7-1.65-1.16l-.74-.54-.61-.5a30,30,0,0,1-2.38-2.06,42.29,42.29,0,0,1-3.24-3.33,39.22,39.22,0,0,1-3.24-4,42.74,42.74,0,0,1-3-4.61c-.94-1.7-1.8-3.43-2.56-5.11s-1.37-3.59-1.95-5.34v0c-.53-2-1-3.75-1.28-5.46a50.22,50.22,0,0,1-.77-9.72,28,28,0,0,1,.26-3.93c.05-.66.13-1.31.21-1.88.05-.39.1-.76.13-1.1s.18-.94.24-1.31c0-.22.07-.41.1-.57.09-.42.17-.67.17-.68a.05.05,0,0,1,.06,0s.05,0,0,.06-.17,1-.34,2.64c-.08.73-.17,1.73-.26,3v3.83a43.84,43.84,0,0,0,.26,4.59c.16,1.53.4,3.12.77,5a42.35,42.35,0,0,0,1.36,5.28,44,44,0,0,0,1.87,5.28,54.22,54.22,0,0,0,2.47,5c1.11,1.91,2,3.33,2.89,4.59a38.41,38.41,0,0,0,3.15,4,42.74,42.74,0,0,0,3.06,3.41,58.63,58.63,0,0,0,5.2,4.51c1.26,1,2,1.52,2,1.53a0,0,0,0,1,0,.07l0,0h0m-1.37,2.9-.6-.34-.16-.1a16.33,16.33,0,0,1-1.54-1c-.36-.24-.73-.51-1.13-.8s-1-.71-1.51-1.07c-1.16-1-2.22-1.87-3.16-2.73a35,35,0,0,1-3.5-3.5,44.79,44.79,0,0,1-3.49-4.26,52.35,52.35,0,0,1-6-10.49,42,42,0,0,1-2-5.71,46.05,46.05,0,0,1-1.44-5.72,57.17,57.17,0,0,1-.86-10.4c0-.39,0-.79.05-1.17s0-.71,0-1a13.76,13.76,0,0,1,.17-2,27,27,0,0,1,.42-3.24,15.16,15.16,0,0,1,.29-1.67l.06-.29a4.34,4.34,0,0,1,.17-.77h0a0,0,0,0,1,.06,0,0,0,0,0,1,0,.06h0a3.1,3.1,0,0,0-.08.75c-.09.43-.17,1.12-.26,2a17.38,17.38,0,0,0-.25,3.15c-.09,1.28-.09,2.62-.09,4.17a51.65,51.65,0,0,0,1.11,10.21,52.3,52.3,0,0,0,3.49,11.32A56.4,56.4,0,0,0,176.6,117c1.08,1.5,2.21,3.06,3.32,4.34a33.45,33.45,0,0,0,2.73,2.91l.67.66c1,1,2,1.95,3,2.81.42.31.79.61,1.15.9.51.4,1,.76,1.4,1.06l1.1.81.52.38a4.88,4.88,0,0,0,.59.42h0a.06.06,0,0,1,0,.07s0,0,0,0h0m-1.35,2.9a3.37,3.37,0,0,1-.69-.35,12.19,12.19,0,0,0-1-.69l-.76-.5a22,22,0,0,1-2.82-2,10,10,0,0,1-.81-.63c-.26-.22-.52-.44-.81-.64-.59-.52-1.19-1-1.79-1.54a52.81,52.81,0,0,1-3.75-3.75c-1.43-1.64-2.63-3.11-3.67-4.52a55.94,55.94,0,0,1-6.39-11.08,58.79,58.79,0,0,1-3.75-12.19c-.34-1.93-.59-3.88-.77-5.8s-.17-3.69-.17-5.29c0-.38,0-.77,0-1.15s0-.77,0-1.15.06-.73.08-1.07,0-.71.09-1.06c.06-.51.12-1,.17-1.48.08-.7.15-1.37.25-1.93a8.93,8.93,0,0,1,.43-2.13,5,5,0,0,0,.08-.76h0a.05.05,0,0,1,.05-.05,0,0,0,0,1,.05.05,5.45,5.45,0,0,1-.08.77c-.08.48-.17,1.2-.26,2.22s-.17,2.12-.25,3.4-.09,2.7-.09,4.34a36.38,36.38,0,0,0,.34,5.19,45.34,45.34,0,0,0,.85,5.71,59.56,59.56,0,0,0,10,23c1.36,1.84,2.5,3.28,3.58,4.51.79,1,1.61,1.8,2.4,2.61.41.42.8.82,1.17,1.22.71.66,1.38,1.25,2,1.82.43.37.83.73,1.21,1.07.94.79,1.93,1.6,2.72,2.13a19.58,19.58,0,0,0,1.78,1.27,3.44,3.44,0,0,0,.6.43,0,0,0,0,1,0,.06.05.05,0,0,1-.05,0h0m54.57-45.11a9.71,9.71,0,0,1,.08-1V85.5A27.47,27.47,0,0,0,243,77.85,29.22,29.22,0,0,0,241.33,74a28.2,28.2,0,0,0-1.62-2.75c-.08-.14-.16-.27-.25-.4-.3-.44-.61-.83-.89-1.18s-.48-.61-.64-.86c-.42-.5-.67-.76-.67-.76a.05.05,0,0,1,.06-.08A17.35,17.35,0,0,1,240,70.56a23.16,23.16,0,0,1,2.13,3.07,27.67,27.67,0,0,1,1.8,3.93,26.38,26.38,0,0,1,.94,4.27,18.85,18.85,0,0,1,.08,3.76c-.06.77-.17,1.48-.26,2,0,.19-.06.36-.08.51-.17.68-.26,1-.26,1s0,0,0,0h0s0,0,0,0m3.1.65a.06.06,0,0,1,0-.06,6.5,6.5,0,0,0,.09-1.18c.08-.77.08-1.79.08-3.07a26.51,26.51,0,0,0-1.7-9c-.24-.71-.57-1.56-.93-2.39s-.68-1.44-1-2.1l0,0a33.27,33.27,0,0,0-2.38-3.66l-.29-.36c-.65-.8-1.22-1.49-1.66-1.93l-.85-.85a.06.06,0,0,1,0-.07,0,0,0,0,1,.07,0l.94.68A17.77,17.77,0,0,1,241.84,68a19.67,19.67,0,0,1,2.73,3.5c.35.69.78,1.47,1.2,2.22.21.48.39,1,.57,1.44l.37,1a21.15,21.15,0,0,1,1.19,5,19.57,19.57,0,0,1,.17,4.44,18.65,18.65,0,0,1-.42,3.08,5.11,5.11,0,0,1-.26,1.2.05.05,0,0,1,0,0h0m3.11.54s0-.52.09-1.36.08-2,.08-3.58a26.47,26.47,0,0,0-.51-4.93A25.25,25.25,0,0,0,248.66,75c-.22-.59-.47-1.19-.71-1.76l-.4-1c-.41-.82-.83-1.58-1.36-2.46a40.65,40.65,0,0,0-2.81-4.08c-.93-1.11-1.77-1.94-2.38-2.55s-1-.94-1-.94a0,0,0,0,1,0-.07s0,0,.06,0a11.17,11.17,0,0,1,1.11.77l.35.3a25.18,25.18,0,0,1,2.3,2.18,23,23,0,0,1,3.16,4,23.4,23.4,0,0,1,1.36,2.46h0l.31.66c.32.7.63,1.36.89,2.07A28.59,28.59,0,0,1,251,80.38a36.69,36.69,0,0,1,.25,5A26,26,0,0,1,250.8,89c-.17.84-.26,1.36-.26,1.36s0,0,0,0h0a0,0,0,0,1-.05-.05m-33-27.06a0,0,0,0,1,0-.06,4,4,0,0,1,1.29-.78,13.81,13.81,0,0,1,3.16-1.11,11.71,11.71,0,0,1,3.34-.25h0a6.3,6.3,0,0,1,1.54.17.07.07,0,0,1,0,.05s0,0-.05,0-.6.08-1.44.25c-.68.13-1.46.29-2.28.47l-1,.21c-1,.23-2.2.49-3.15.68s-1.44.34-1.44.34h0a.05.05,0,0,1,0,0M253.51,91a1.13,1.13,0,0,1,0-.23c0-.26.09-.71.14-1.31.09-.93.09-2.35.09-4a35.33,35.33,0,0,0-.6-5.61,34.62,34.62,0,0,0-1.7-6.21,38.91,38.91,0,0,0-2.81-5.78,34.44,34.44,0,0,0-3.4-4.6,29.48,29.48,0,0,0-2.72-2.8c-.76-.68-1.19-1-1.19-1a0,0,0,0,1,0-.07,0,0,0,0,1,.06,0,9.54,9.54,0,0,1,1.29.86l.05,0a24.55,24.55,0,0,1,3,2.69l.1.11a27.79,27.79,0,0,1,3.48,4.33,29,29,0,0,1,3,5.88,30.73,30.73,0,0,1,1.7,6.4,34.68,34.68,0,0,1,.35,5.8,34.22,34.22,0,0,1-.43,4,3.83,3.83,0,0,1-.16.63,2,2,0,0,0-.09.46v0a1.94,1.94,0,0,0-.05.2l0,.22s0,0-.05,0h0a0,0,0,0,1-.05,0M216,60.39a0,0,0,0,1,0-.06s.53-.35,1.45-.86A16.16,16.16,0,0,1,221,58.28a15,15,0,0,1,3.76-.35h0a6.83,6.83,0,0,1,1.71.18s.05,0,0,0,0,0-.05,0a3.19,3.19,0,0,0-.5.09,8.57,8.57,0,0,1-1.19.26c-.91.16-2.12.4-3.49.68s-2.54.56-3.58.85a13.81,13.81,0,0,1-1.62.34h0a.05.05,0,0,1-.05,0m40.58,31.2a0,0,0,0,1,0,0s.08-.61.17-1.7a33.47,33.47,0,0,0,.17-4.51,34.45,34.45,0,0,0-.68-6.21,35.89,35.89,0,0,0-2-7c-.42-1.09-.93-2.2-1.43-3.28l0,0c-.6-1.12-1.23-2.2-1.78-3.14a43.15,43.15,0,0,0-3.83-5c-1.26-1.34-2.34-2.35-3.23-3.15s-1.28-1.1-1.28-1.11,0,0,0-.06a0,0,0,0,1,.06,0,3.2,3.2,0,0,1,.43.26,4.67,4.67,0,0,0,.45.34c.18.13.38.27.58.43l.52.41a30.45,30.45,0,0,1,2.89,2.49,32,32,0,0,1,4.1,5,27,27,0,0,1,1.87,3.07c.46.85.87,1.75,1.26,2.62l.36.79a38.24,38.24,0,0,1,1.88,7.17,16.12,16.12,0,0,1,.34,3.42c.09,1,.09,2.06.09,3a39.13,39.13,0,0,1-.51,4.52,8.37,8.37,0,0,1-.26,1.28,1,1,0,0,1-.09.44s0,0,0,0h0m-41.94-34a0,0,0,0,1,0-.06,11.27,11.27,0,0,1,1.62-.94,18,18,0,0,1,3.85-1.37,26.89,26.89,0,0,1,4.1-.43l1.88.17s0,0,0,0a.06.06,0,0,1,0,.06,1.26,1.26,0,0,1-.52.09c-.26.08-.74.16-1.25.25h0c-.88.21-2,.41-3.08.61l-.84.16c-1.74.41-3,.73-3.91,1a7.13,7.13,0,0,0-.89.23l-.39.11a1.27,1.27,0,0,0-.5.08h0a.05.05,0,0,1-.05,0m45,34.61a.06.06,0,0,1,0-.06,10.18,10.18,0,0,0,.26-1.87c.08-1.08.17-2.82.17-4.93a43.17,43.17,0,0,0-3-14.64,27.39,27.39,0,0,0-1.7-3.65c-.59-1.19-1.28-2.3-1.94-3.38l0,0a37.37,37.37,0,0,0-4.25-5.44,42.7,42.7,0,0,0-3.66-3.49,18.2,18.2,0,0,0-1.44-1.19s0,0,0-.07a.06.06,0,0,1,.07,0,4,4,0,0,1,.43.25A2.73,2.73,0,0,0,245,54a6.41,6.41,0,0,1,.72.5,38.65,38.65,0,0,1,3.83,3.15,43.45,43.45,0,0,1,4.52,5.46c.72,1,1.39,2.12,2.13,3.41.25.52.5,1,.75,1.54.38.77.74,1.5,1.05,2.22a40.76,40.76,0,0,1,2.13,7.93,43.08,43.08,0,0,1,.51,7.08,45.78,45.78,0,0,1-.49,4.78l0,.17a6.67,6.67,0,0,1-.16.78,3.61,3.61,0,0,0-.1.57,2.32,2.32,0,0,1-.17.53.05.05,0,0,1-.05,0h0M213.31,54.77s0-.05,0-.06a10.89,10.89,0,0,1,1.8-1,21,21,0,0,1,4.27-1.45,16.43,16.43,0,0,1,4.44-.51c1.18,0,2,.08,2,.08s0,0,.05.05a.07.07,0,0,1,0,0s-.87.17-2,.43-2.75.51-4.26.85c-.76.17-1.52.36-2.26.54s-1.4.35-2,.48c-1.17.34-1.94.59-1.95.6h0a.05.05,0,0,1,0,0m49.49,38a1.35,1.35,0,0,1,0-.2c0-.31.09-1,.15-1.85a46.78,46.78,0,0,0,.25-5.45,27.29,27.29,0,0,0-.25-3.57c-.06-.83-.18-1.67-.32-2.57-.06-.47-.14-.95-.2-1.43s-.23-1-.34-1.47c-.2-.9-.4-1.82-.68-2.7a33.58,33.58,0,0,0-1.53-4.16,37,37,0,0,0-4.08-7.75,41,41,0,0,0-4.77-6,46.21,46.21,0,0,0-4-3.74c-1-.84-1.61-1.27-1.61-1.28a0,0,0,0,1,0-.06.05.05,0,0,1,.07,0l.51.25h0a5.87,5.87,0,0,0,.76.58c.16.1.33.22.52.36l.32.24a37.18,37.18,0,0,1,9,9.14A43.34,43.34,0,0,1,260.85,69c.62,1.67,1.08,3,1.45,4.27a39.83,39.83,0,0,1,.87,3.93l.06.33a43.26,43.26,0,0,1,.6,7.76,34.05,34.05,0,0,1-.6,5.46,14.52,14.52,0,0,1-.25,1.54l-.07.31c0,.13,0,.19,0,.19a0,0,0,0,1,0,.05h0a0,0,0,0,1,0-.05M212,51.87s0,0,0-.06a13.62,13.62,0,0,1,2-1,24.77,24.77,0,0,1,4.61-1.62,21.14,21.14,0,0,1,4.78-.6c1.35,0,2.21.09,2.22.09a0,0,0,0,1,0,.05s0,0,0,0l-2.12.42-1.32.25c-1,.19-2.2.4-3.37.69l-4.6,1.19c-1.26.34-2.12.6-2.12.6h0s0,0,0,0M265.9,93.38s0,0,0,0l.26-2.21a56.05,56.05,0,0,0,.25-5.88,31.48,31.48,0,0,0-.25-3.91,41.9,41.9,0,0,0-.59-4.32v0a44.32,44.32,0,0,0-1.19-4.59,27.32,27.32,0,0,0-1.62-4.51,39.78,39.78,0,0,0-4.51-8.43A46.54,46.54,0,0,0,253,53.08a39.41,39.41,0,0,0-4.42-4l-1.79-1.36a.06.06,0,0,1,0-.07,0,0,0,0,1,.06,0,4.28,4.28,0,0,1,.52.35,6.59,6.59,0,0,1,1.37.85l.15.11a34,34,0,0,1,4.53,3.73A42.32,42.32,0,0,1,259,59a45.36,45.36,0,0,1,4.69,8.53c.5,1.21.94,2.55,1.37,3.85.08.25.16.5.25.75.44,1.69.78,3.22,1,4.69a43.72,43.72,0,0,1,.68,8.44c-.08,1.19-.17,2.31-.25,3.33a18.34,18.34,0,0,1-.34,2.56,8.78,8.78,0,0,1-.28,1.39,1.31,1.31,0,0,0-.06.23,1.62,1.62,0,0,1-.09.61.05.05,0,0,1,0,0h0M210.58,49.06a0,0,0,0,1,0-.06s.87-.52,2.13-1.2a25.28,25.28,0,0,1,5-1.7,31.14,31.14,0,0,1,5.2-.69,15.35,15.35,0,0,1,2.4.17.07.07,0,0,1,0,.06,0,0,0,0,1-.05,0s-.95.09-2.38.34-3.25.62-5,1c-2.11.51-4,1.07-4.94,1.37-1.35.42-2.29.68-2.3.68h0a.05.05,0,0,1,0,0M269,94a0,0,0,0,1,0-.06s.17-.87.34-2.38a24.66,24.66,0,0,0,.17-2.81c.08-1,.08-2.2.08-3.57a38.81,38.81,0,0,0-.25-4.26c-.17-1.47-.44-3.18-.68-4.68s-.74-3.15-1.28-4.93v0a37.63,37.63,0,0,0-1.77-4.82,46.28,46.28,0,0,0-4.94-9,44.08,44.08,0,0,0-5.7-6.9,54.46,54.46,0,0,0-4.77-4.25c-1.18-.93-2-1.44-2-1.45a0,0,0,0,1,0-.06s0,0,.06,0a2.55,2.55,0,0,1,.61.35,13,13,0,0,1,1.45.94,26.09,26.09,0,0,1,2.3,1.7,34.27,34.27,0,0,1,2.73,2.39,44.84,44.84,0,0,1,6.05,6.82,49.72,49.72,0,0,1,5.12,9.13,36,36,0,0,1,1.71,5,34.23,34.23,0,0,1,1.19,5,50.19,50.19,0,0,1,.77,9c-.08,1.19-.16,2.36-.26,3.66-.05.63-.14,1.24-.21,1.77-.05.34-.1.67-.13,1-.11.51-.19.94-.25,1.29q0,.28-.09.51a2.21,2.21,0,0,1-.18.6s0,0,0,0h0M209.3,46.16a0,0,0,0,1,0-.06s.87-.52,2.22-1.19a29.13,29.13,0,0,1,5.3-1.8,24,24,0,0,1,5.54-.76,13,13,0,0,1,2.57.08.07.07,0,0,1,0,0,0,0,0,0,1,0,.05l-2.47.43-.4.07c-1.38.24-3.26.57-5,1s-3.5.9-4.9,1.31l-.46.14c-1.43.42-2.38.68-2.39.68h0a.05.05,0,0,1,0,0m62.78,48.37a2,2,0,0,1,0-.23c0-.36.11-1.18.24-2.33a16.07,16.07,0,0,0,.19-2c0-.33,0-.67.06-1,.09-1.19.09-2.47.09-3.83,0-.5-.05-1-.07-1.53,0-1-.08-2-.19-3.07s-.29-2.1-.48-3.23c-.09-.58-.2-1.19-.29-1.79-.3-1.59-.73-3.1-1.19-4.7l-.17-.58c-.63-1.91-1.21-3.54-2-5.27s-1.54-3.41-2.47-5a34.05,34.05,0,0,0-2.81-4.6c-.93-1.31-1.91-2.53-2.86-3.72l-.29-.36c-.66-.77-1.35-1.5-2-2.21-.37-.38-.71-.75-1-1.11a48.72,48.72,0,0,0-5.19-4.51,21.2,21.2,0,0,0-2.13-1.53.06.06,0,0,1,0-.07,0,0,0,0,1,.06,0,2.18,2.18,0,0,1,.61.35l.31.18a10.11,10.11,0,0,1,1.31.84c.41.31.9.66,1.41,1l1.06.77c1.08.86,2,1.69,3,2.56s2.13,2,3.24,3.23a40.48,40.48,0,0,1,3.24,4c1,1.38,2,3,3,4.69a48.88,48.88,0,0,1,2.56,5.12c.79,2,1.42,3.79,1.88,5.37a40,40,0,0,1,1.27,5.38,50.5,50.5,0,0,1,.86,9.8c-.09,1.34-.17,2.72-.26,3.83-.06.43-.11.82-.15,1.2-.09.69-.17,1.29-.28,1.79a11.93,11.93,0,0,1-.23,1.43c0,.19-.08.37-.11.53s-.05.29-.06.38,0,.21,0,.21a0,0,0,0,1-.05,0h0a.05.05,0,0,1-.05,0M207.94,43.35a0,0,0,0,1,0-.06A25,25,0,0,1,210.35,42a30.43,30.43,0,0,1,5.63-2,34.61,34.61,0,0,1,6-.86c1.61,0,2.73.09,2.74.09a0,0,0,0,1,0,0,.05.05,0,0,1,0,.05s-1.12.17-2.64.43c-1.76.27-3.87.71-5.79,1.19-1.71.41-3.39.88-4.74,1.26l-1,.27-2.56.85h0a.05.05,0,0,1-.05,0m67.24,51.82s0,0,0,0a4.08,4.08,0,0,1,.08-.69c.09-.5.17-1.19.26-2s.15-1.75.25-3.15.09-2.61.09-4.17a68.71,68.71,0,0,0-1.11-10.3,59.54,59.54,0,0,0-3.57-11.23,56.84,56.84,0,0,0-5.71-10.3A43.6,43.6,0,0,0,262,49a33.31,33.31,0,0,0-3.32-3.58c-.78-.78-1.51-1.42-2.21-2-.29-.26-.58-.51-.85-.77-1.07-.87-1.86-1.49-2.47-2a11.13,11.13,0,0,0-1.16-.88c-.2-.14-.39-.27-.55-.4l-.59-.43a.05.05,0,0,1,0,0s0,0,0,0,.05,0,.07,0a8,8,0,0,0,.68.43l.57.37a11.29,11.29,0,0,1,1.13.74c.86.57,1.73,1.18,2.64,1.87l.5.4A33.79,33.79,0,0,1,259.13,45a46,46,0,0,1,3.5,3.5,43.31,43.31,0,0,1,3.49,4.26,61.48,61.48,0,0,1,6,10.4c.69,1.68,1.37,3.6,2.05,5.71a51.09,51.09,0,0,1,1.36,5.8,51,51,0,0,1,.94,10.4,19.07,19.07,0,0,0-.09,2.22c0,.33-.06.66-.08,1a9.63,9.63,0,0,1-.09,1c-.06.48-.12.93-.17,1.37-.08.66-.15,1.27-.25,1.79a14.64,14.64,0,0,1-.29,1.78c0,.1,0,.18-.05.26a3.39,3.39,0,0,1-.18.7l0,0h0m-68.6-54.71a0,0,0,0,1,0-.06,18.67,18.67,0,0,1,2.56-1.29l.17-.07c.72-.32,1.61-.72,2.56-1a21,21,0,0,1,2.47-.78l.85-.24c1.12-.25,2.24-.43,3.33-.6a18.86,18.86,0,0,1,2.91-.25,24.87,24.87,0,0,1,2.9,0,0,0,0,0,1,0,0,.07.07,0,0,1,0,0l-2.81.42-.64.13c-.66.13-1.42.28-2.25.47-1,.17-2.16.43-3.24.68-.64.15-1.28.33-1.91.5l-1.33.35c-.72.24-1.39.44-2,.63l-.77.22c-1.59.51-2.71.85-2.72.85h0a.05.05,0,0,1,0,0m71.67,55.31a.06.06,0,0,1,0-.06h0a2.26,2.26,0,0,0,.09-.76l0-.17a18.59,18.59,0,0,0,.31-2c.07-.81.15-1.86.25-3.41.09-1.27.09-2.8.09-4.42,0-.43,0-.85-.06-1.3a36.14,36.14,0,0,0-.28-3.89c-.17-1.79-.52-3.78-.85-5.7a61.64,61.64,0,0,0-10-22.9c-1.19-1.61-2.39-3.16-3.58-4.6l-.25-.27c-1.18-1.25-2.29-2.44-3.32-3.47-1.22-1.14-2.31-2.14-3.32-3a30.5,30.5,0,0,0-2.64-2l-1-.78c-.3-.22-.55-.41-.77-.59-.38-.23-.64-.39-.67-.42h0a.08.08,0,0,1,0,0,0,0,0,0,1,0,0,0,0,0,0,1,.07,0l.68.42.32.19a11.58,11.58,0,0,1,1.56,1c.45.3.95.65,1.53,1.06l1.28.89,1.62,1.37c.51.42,1.11.94,1.71,1.54,1.08,1,2.42,2.25,3.75,3.66a43.23,43.23,0,0,1,3.75,4.61,62.48,62.48,0,0,1,6.39,11,60.8,60.8,0,0,1,3.75,12.19c.34,2,.6,4,.77,5.89l0,.44c.08,1.68.15,3.26.15,4.76-.08.85-.08,1.63-.08,2.38a18.33,18.33,0,0,0-.18,2c-.06.48-.1.92-.15,1.35-.09.78-.16,1.45-.27,2.06s-.17.9-.25,1.28l-.18.94c-.08.42-.17.67-.17.69a0,0,0,0,0,0,0h-.05m-73-58.12a.06.06,0,0,1,0-.07A17.14,17.14,0,0,1,208,36.22a18.93,18.93,0,0,1,2.9-1.2,23.28,23.28,0,0,1,3.5-1,26.69,26.69,0,0,1,3.25-.65l.24,0c1.08-.16,2-.24,2.89-.32l.27,0a27.88,27.88,0,0,1,3.07,0,0,0,0,0,1,0,0,.06.06,0,0,1,0,.06s-1.21.17-3,.51l-.52.09c-.81.14-1.64.29-2.55.5a28.26,28.26,0,0,0-3.49.77c-.67.14-1.31.31-1.93.48s-1,.26-1.48.37l-1.48.47-1.5.47c-1.68.59-2.88.93-2.89.93h0a0,0,0,0,1,0,0m-1.37-2.81a.06.06,0,0,1,0-.07s1.13-.69,2.9-1.53l.74-.31c.72-.3,1.52-.64,2.34-.89,1.27-.45,2.51-.8,3.66-1.11q.7-.13,1.38-.3c.83-.18,1.61-.35,2.38-.46,1.08-.16,2.08-.24,3-.32l.27,0c1.86-.08,3.15,0,3.16,0a.12.12,0,0,1,.05.05,0,0,0,0,1,0,.05s-1.22.26-3.16.52c-.31,0-.64.12-1,.19-.68.13-1.46.29-2.26.4l-1,.24c-.85.18-1.72.37-2.61.61s-2.3.64-3.58.94c-1.08.31-2.08.63-3.15,1-1.85.59-3,1-3.06,1h0a.09.09,0,0,1-.05,0m-1.36-2.9a0,0,0,0,1,0-.06s1.22-.7,3.07-1.54c.85-.38,1.91-.8,3.24-1.28s2.58-.86,3.84-1.19c.52-.1,1-.21,1.51-.32.83-.17,1.62-.34,2.41-.45,1.1-.15,2.13-.23,3-.3l.46,0a26.7,26.7,0,0,1,3.41-.09,0,0,0,0,1,0,0s0,.05,0,.05l-3.32.6-.78.12c-.81.13-1.73.28-2.63.47-.64.13-1.29.28-1.91.43s-1.28.3-1.92.43c-1.46.36-2.67.69-3.83,1.1h0c-1.16.33-2.37.68-3.3,1-1.94.59-3.23,1-3.24,1h0a.05.05,0,0,1,0,0m-8.05-7.86a54.17,54.17,0,0,0-4.94,2.47l25,46.42a14.45,14.45,0,1,1-6.09,7.85l-51-15.17a66.52,66.52,0,1,0,37.05-41.57"/></clipPath><linearGradient id="Degradado_sin_nombre_2" x1="-49.63" y1="422.88" x2="-48.63" y2="422.88" gradientTransform="matrix(133.18, 0, 0, -133.18, 6763.74, 56410.7)" xlink:href="#Degradado_sin_nombre"/><clipPath id="clip-path-3"><path class="cls-1" d="M70.67,300.82h1.92a2,2,0,0,1,2,1.93v1.83A1.66,1.66,0,0,1,74,306a1.9,1.9,0,0,1-1.38.54H70.67Zm-3.94-3.93v31h3.94V310.44h1.92a5.48,5.48,0,0,0,2.94-.82,5.84,5.84,0,0,0,2-2.2,5.27,5.27,0,0,0,.73-2.84v-1.83a5,5,0,0,0-.73-2.84,5.84,5.84,0,0,0-2-2.2,5.48,5.48,0,0,0-2.94-.82Zm32.71,0v3.84h7.69L99.44,324v3.85h7.78l3.85-3.85h-7.69l7.69-23.27v-3.84Zm21.07,0v3.84h7.7L120.51,324v3.85h7.7l3.93-3.85h-7.78l7.69-23.27.09-3.84Zm25.74,3.84h2a1.61,1.61,0,0,1,1.28.64,1.66,1.66,0,0,1,.64,1.38v3.85h-3.94Zm-3.84-3.84v31h3.84V310.54h3.94v17.31h3.94v-25.1a5.73,5.73,0,0,0-.82-3,6.84,6.84,0,0,0-2.2-2.11,6.21,6.21,0,0,0-2.84-.73Zm52.49,3.93h1.93a1.89,1.89,0,0,1,1.37.55,2.2,2.2,0,0,1,.55,1.38v1.83a1.86,1.86,0,0,1-1.92,1.92H194.9ZM191,296.89v31h3.94V310.44h1.93a5.17,5.17,0,0,0,2.84-.82,6.07,6.07,0,0,0,2.1-2.2,6.22,6.22,0,0,0,.74-2.84v-1.83a5.91,5.91,0,0,0-.74-2.84,6.07,6.07,0,0,0-2.1-2.2,5.17,5.17,0,0,0-2.84-.82Zm23.46,3.84h2a1.61,1.61,0,0,1,1.28.64,1.67,1.67,0,0,1,.65,1.38v3.85h-3.94Zm-3.85-3.84v31h3.85V310.54h3.94v17.31h3.94v-25.1a5.74,5.74,0,0,0-.83-3,6.84,6.84,0,0,0-2.2-2.11,6.18,6.18,0,0,0-2.84-.73Zm24.83.73a7.57,7.57,0,0,0-2.11,2.11,5.9,5.9,0,0,0-.73,2.83v5.87a3.09,3.09,0,0,0,1.19,2.56,22.67,22.67,0,0,0,3.57,2.48,13,13,0,0,1,2.29,1.46,1.35,1.35,0,0,1,.73,1.19V322a2.17,2.17,0,0,1-.55,1.37,2,2,0,0,1-1.37.55A1.88,1.88,0,0,1,236.5,322v-1.93h-3.94V322a6.58,6.58,0,0,0,.73,2.93,5.94,5.94,0,0,0,5.13,2.93,6,6,0,0,0,5-2.93,6.58,6.58,0,0,0,.73-2.93v-5.87a3.35,3.35,0,0,0-1.28-2.56,25.73,25.73,0,0,0-3.39-2.47,19.19,19.19,0,0,1-2.29-1.56,1.41,1.41,0,0,1-.64-1.1v-5.87a1.86,1.86,0,0,1,.55-1.37,1.83,1.83,0,0,1,1.37-.55,2,2,0,0,1,1.37.55,1.86,1.86,0,0,1,.55,1.37v2h3.76v-2a6.17,6.17,0,0,0-.73-2.83,6.54,6.54,0,0,0-2.11-2.11,5.91,5.91,0,0,0-2.84-.73,6.63,6.63,0,0,0-3,.73m17.86-.73v3.75h3.67v27.21l3.94-3.94V300.64h3.94v-3.75Zm24.56,3.84h2a1.61,1.61,0,0,1,1.28.64,1.67,1.67,0,0,1,.65,1.38v3.85h-3.94ZM274,296.89v31h3.85V310.54h3.94v17.31h3.93v-25.1a5.73,5.73,0,0,0-.82-3,6.84,6.84,0,0,0-2.2-2.11,6.18,6.18,0,0,0-2.84-.73Zm52.49,3.93h1.93a1.87,1.87,0,0,1,1.37.55,2.35,2.35,0,0,1,.64,1.38v1.83a2,2,0,0,1-.64,1.38,1.86,1.86,0,0,1-1.37.54h-1.93Zm-3.94-3.93v31h3.94V310.44h1.93a4.94,4.94,0,0,0,2.84-.82,6.1,6.1,0,0,0,2.11-2.2,6.34,6.34,0,0,0,.73-2.84v-1.83a6,6,0,0,0-.73-2.84,6.1,6.1,0,0,0-2.11-2.2,4.94,4.94,0,0,0-2.84-.82Zm27.22,0v25.37a1.86,1.86,0,0,1-.55,1.29,1.68,1.68,0,0,1-1.38.64,2.23,2.23,0,0,1-2-1.93V296.89h-3.67v25.37a5.67,5.67,0,0,0,.73,2.75,5.85,5.85,0,0,0,2.11,2.11,5.27,5.27,0,0,0,2.84.73,5.16,5.16,0,0,0,2.93-.73,6,6,0,0,0,2.2-2.11,5.57,5.57,0,0,0,.74-2.75V296.89Zm18,13.46h1.75a2.1,2.1,0,0,1,1.46.55,1.87,1.87,0,0,1,.55,1.38v9.8a1.83,1.83,0,0,1-.55,1.37,1.92,1.92,0,0,1-1.46.55h-1.75Zm0-9.62h1.75a2.18,2.18,0,0,1,1.46.64,1.87,1.87,0,0,1,.55,1.38v1.74A1.94,1.94,0,0,1,371,306a2.35,2.35,0,0,1-1.46.45h-1.75Zm-3.84-3.84v31h5.59a5.79,5.79,0,0,0,6-5.77v-9.8a6.14,6.14,0,0,0-.46-2.11,5.33,5.33,0,0,0-.91-1.74,6.68,6.68,0,0,0,1.37-3.94v-1.74a5.51,5.51,0,0,0-.82-2.93,4.73,4.73,0,0,0-2.11-2.11,5.78,5.78,0,0,0-3-.82Zm-278.06,31h4V300.09h.82c-.27,0-1.46-1-3.75-2.84a7.76,7.76,0,0,0-1.1-.91Z"/></clipPath><linearGradient id="Degradado_sin_nombre_3" x1="-49.63" y1="422.91" x2="-48.63" y2="422.91" gradientTransform="matrix(0, -31.52, -31.52, 0, 13549.75, -1236.15)" gradientUnits="userSpaceOnUse"><stop offset="0" stop-color="#b19067"/><stop offset="0.46" stop-color="#f2e5a0"/><stop offset="1" stop-color="#bda072"/></linearGradient></defs><title>logo-serafina</title><path class="cls-2" d="M143,71.92l-6.13-2.24A12.7,12.7,0,0,1,129,54.21l.11-.48c.17-.6.4-1.17.54-1.76.05-.2.08-.4.14-.57.62-2.07,1.36-4.08,2.13-6.09a86,86,0,0,1,8.36-16.59,55.85,55.85,0,0,1,3.68-4.93,74,74,0,0,1,7-7.14,131.58,131.58,0,0,1,13-10.21c1.5-1,3-2.07,4.62-3,.45-.31.93-.62,1.44-.94l.15-.11a12.74,12.74,0,0,1,18.65,4.37L192,12.68a79.34,79.34,0,0,1,108,66,524.59,524.59,0,0,1,74.67,20.64c6,2.1,12,4.25,17.77,6.89,11.74,5.35,21.26,13.21,25.65,25.71a47.09,47.09,0,0,1,2.78,14.82v10.21a4.07,4.07,0,0,1,.45.34h0l0,0,0,0h0l.08.09,0,0h0v0h0l0,0,0,0h0l0,.06h0l.17.14,0,0,.17.14,0,0h0l.19.2a19.8,19.8,0,0,1,6.72,12.44,4.68,4.68,0,0,1,.09.91c.14,1.56.37,3.14.56,4.73.54,4.45,1,8.93,1.51,13.41.65,6.09,1.3,12.16,2,18.26.79,6.94,1.56,13.89,2.35,20.8s1.59,13.95,2.36,20.92q1.05,9.15,2,18.26c.48,4.33,1,8.67,1.42,13,.17,1.61.42,3.2.53,4.82.77,5.67-2.46,10.8-7.28,13.6l-.51.29a21.92,21.92,0,0,1-10.15,2h-1.25l-.05,0h-.71l-.06,0h-.45l0,0H421l-.06,0h-.22c.08,3.65.11,7.31.11,10.94v5.53a46.6,46.6,0,0,1-2.78,14.74c-4.39,12.47-13.89,20.41-25.65,25.76-5.78,2.64-11.79,4.82-17.77,6.92-36,12.59-74.19,22.54-112.25,25.82-13.33,1.17-26.82,1.59-40.2,1.62s-26.59-.37-39.8-1.39c-38.92-3.06-78.06-13.18-114.83-26.05-5.95-2.1-11.91-4.28-17.66-6.89-11.79-5.36-21.34-13.27-25.77-25.79a2.67,2.67,0,0,1-.11-.34,46.33,46.33,0,0,1-2.58-14.66c0-1.16-.06-2.32-.06-3.49-.08-4.7,0-9.46,0-14.2-.68-.11-1.37-.25-2-.42l-.34-.06-.62-.17,0,0-.25-.05-.06,0-.31-.09L17.4,299l-.56-.2-.12,0-.25-.08-.23-.09h0l-.12-.06-.17-.05-.11,0-.2-.09,0,0-.14-.06h-.06l-.17-.09h0l-.22-.08,0,0-.09,0-.17-.05-.11-.06,0,0-.2-.08h0l-.06,0-.17-.09-.14-.05v0l-.23-.09-.08-.06-.15-.05-.14-.09-.11,0-.11-.08-.23-.11-.14-.09-.12,0-.14-.08-.2-.12-.17-.11-.05,0-.15-.08h0l-.2-.11,0,0,0,0-.2-.12-.11-.05,0,0-.2-.11,0-.06-.2-.11-.06-.06-.23-.14h0v0l-.22-.14-.09-.06-.19-.14,0,0,0,0-.23-.14-.05-.06L9.47,295h0l-.23-.19-.08-.06L9,294.56l-.06-.06-.22-.17,0,0-.23-.2,0,0-.25-.22C2.15,288.58,0,281,0,273.21v-8.53c0-5.19,2.86-9.35,7.14-12.08a20.33,20.33,0,0,1,11-2.77c4.71,0,9.3,1,12.73,3.77v-3.94a5.08,5.08,0,0,0-.65-2.27,38.82,38.82,0,0,0-4.31-6.1c-2.16-2.52-4.4-4.93-6.72-7.28-2.83-2.81-5.56-5.76-8.16-8.79a61.64,61.64,0,0,1-7.21-10.35A30,30,0,0,1,0,200.28V180.72l0-.37v-.74l0-.34,0-.37,0-.37,0-.36,0-.34,0-.37,0-.37.05-.34,0-.37L.37,176l.06-.37,0-.34L.54,175l.06-.34.05-.37.09-.34.05-.34.09-.36.08-.34.09-.34.09-.34.11-.34.08-.35a1.74,1.74,0,0,1,.12-.34l.08-.34a1,1,0,0,0,.11-.34l.12-.34a1.12,1.12,0,0,0,.11-.31,3.45,3.45,0,0,0,.14-.34c0-.11.09-.22.12-.31l.14-.34.14-.31a1.63,1.63,0,0,1,.14-.34,1.73,1.73,0,0,1,.14-.31,2.26,2.26,0,0,1,.15-.31c.05-.12.11-.23.17-.35a1.91,1.91,0,0,1,.14-.31l.17-.31c.05-.08.11-.2.17-.31l.17-.31c0-.09.11-.2.17-.29s.14-.22.2-.31.11-.2.17-.31a1.54,1.54,0,0,0,.19-.28,1.61,1.61,0,0,0,.2-.31,1.68,1.68,0,0,0,.2-.29c.09-.08.14-.2.23-.28a1.64,1.64,0,0,1,.2-.29,3.42,3.42,0,0,1,.22-.28c.09-.11.15-.2.23-.28a1.09,1.09,0,0,1,.23-.29,3.42,3.42,0,0,1,.22-.28c.09-.08.17-.2.26-.28A1.69,1.69,0,0,1,6.6,162a3.71,3.71,0,0,1,.26-.28l.26-.26.25-.25c.09-.09.17-.2.26-.29a3.53,3.53,0,0,0,.28-.25l.23-.2,0-.06.23-.19,0,0,.2-.14v0l.08-.09.2-.14,0,0,.25-.2.06,0,.17-.14.08-.06.23-.17,0,0,.06-.06.14-.08.14-.11h0l.17-.15h0v0l.22-.15.09-.05.14-.12.11,0,.2-.14.14-.09.12-.08.14-.09.2-.11.17-.12,0,0,.17-.08,0,0,.2-.11.2-.11h0l.14-.12.09,0,.34-.17,0,0,.17-.09.06,0,.2-.08.2-.12.17-.08.08,0,.14-.09h0l.2-.11h0l.06,0,.19-.08.12-.06.14-.06.11-.05.23-.09.17-.05.08-.06.17-.06.23-.08.12,0,.19-.09,0,0,.09,0,.22-.06,0,0,.2-.05,0,0,.14,0,.26-.09.28-.08.08,0,.23-.08h.06l0,0,.28-.06,0,0,.25-.08h.06l.62-.17h0l.31-.09c.63-.14,1.22-.25,1.85-.37,0-2.46,0-4.9.08-7.37A48.48,48.48,0,0,1,24,132.19a1.63,1.63,0,0,1,.11-.31c4.43-12.53,14-20.38,25.77-25.71,5.75-2.61,11.68-4.79,17.63-6.89a518.56,518.56,0,0,1,74.55-20.55c.23-2.3.54-4.57,1-6.81"/><g class="cls-3"><rect class="cls-4" x="211.46" y="363.37" width="19.21" height="18"/></g><polygon class="cls-5" points="173.08 304.95 176.25 310.75 182.72 311.88 178.13 316.54 179.03 322.95 173.08 320.16 167.21 322.95 168.04 316.47 163.52 311.88 170.07 310.67 173.08 304.95"/><polygon class="cls-5" points="305.25 304.09 308.41 309.89 314.89 311.02 310.3 315.69 311.2 322.09 305.25 319.3 299.38 322.09 300.2 315.61 295.69 311.02 302.24 309.81 305.25 304.09"/><g class="cls-6"><rect class="cls-7" x="152.88" y="18.54" width="143.87" height="142.34"/></g><path class="cls-8" d="M218.1,87.64a4.56,4.56,0,0,1,1.24-6.39,4.49,4.49,0,0,1,6.3,1.26,4.56,4.56,0,1,1-7.54,5.13Z"/><path class="cls-9" d="M164.17,38.74a43,43,0,0,1,6.14-6.3C173,30.14,176,28,179,26c1.37-.94,2.82-1.88,4.18-2.73l.6-.25-6.23-11.59-.59.42c-.6.34-1.11.68-1.62,1-1.45.86-2.81,1.79-4.18,2.73a109.34,109.34,0,0,0-11.67,9.21,53.72,53.72,0,0,0-5.8,5.88,38.56,38.56,0,0,0-2.81,3.75,73.1,73.1,0,0,0-7.08,14.15c-.68,1.7-1.27,3.4-1.79,5.11-.17.68-.42,1.36-.59,2l-.17.6,11.33,4.09.26-.59c.6-1.54,1.36-3.07,2-4.61,1.54-3.24,3.16-6.47,5-9.54a52.15,52.15,0,0,1,4.34-6.91"/><path class="cls-9" d="M184.88,25.11l-.59.42c-1.37.94-2.73,2-4.09,3-2.9,2.13-5.71,4.43-8.44,6.81a59.89,59.89,0,0,0-6.48,6.57,27.26,27.26,0,0,0-2.9,4.09,65.12,65.12,0,0,0-5.11,10c-.51,1.19-.94,2.3-1.45,3.49a8.8,8.8,0,0,0-.42,1.45l-.26.68L214,79.06Z"/><path class="cls-5" d="M36.16,327a32.53,32.53,0,0,1-2-10.91c0-1.7-.08-3.41-.08-5.11h12c0,12.87,1.88,18.32,17.48,24.46,3.49,1.36,10.91,4.26,18.66,7.07,17.13,6.31,50.71,14.83,67.24,17.64,18.24,3.07,35.46,4.44,57.7,6.23a30.28,30.28,0,0,0-1.87,11.76c-44.92,0-92.64-11.93-133.55-26.25-7.5-2.64-12.79-4.77-16.62-6.48-8.78-4-15.85-9.46-19-18.41"/><path class="cls-5" d="M406.05,327a31.91,31.91,0,0,0,2-10.91V311h-12c.08,12.87-1.79,18.32-17.47,24.46-3.5,1.36-10.83,4.26-18.67,7.07-17.13,6.31-50.71,14.83-67.16,17.64-18.24,3.07-35.45,4.44-57.78,6.23a28.86,28.86,0,0,1,1.87,11.76c44.92,0,92.64-11.93,133.55-26.25,7.59-2.64,12.87-4.77,16.71-6.48,8.69-4,15.77-9.46,18.92-18.41"/><path class="cls-5" d="M36.16,134.71a33.09,33.09,0,0,0-2,11c-.08,3.24-.08,6.57-.08,9.89h12.1c-.34-16.53-.09-22.41,17.39-29.23C67.1,125,74.52,122,82.27,119.2c16.45-6,48.15-14.15,65.29-17.22a74.29,74.29,0,0,1-1.45-12.44,511,511,0,0,0-74.32,20.37c-7.5,2.64-12.79,4.69-16.62,6.48-8.78,3.92-15.85,9.37-19,18.32"/><path class="cls-5" d="M406.05,134.71a32.46,32.46,0,0,1,2,11v9.89h-12c.25-16.53,0-22.41-17.47-29.23-3.5-1.37-10.83-4.35-18.67-7.16-16.53-6-48.49-14.23-65.45-17.3a85.15,85.15,0,0,0,1.36-12.45,511.27,511.27,0,0,1,74.57,20.46c7.59,2.64,12.87,4.69,16.71,6.48,8.69,3.92,15.77,9.37,18.92,18.32"/><path class="cls-10" d="M49.08,190a9.61,9.61,0,0,1-3.94-.71c-1-.46-1.47-.88-1.47-1.22V179.5a6.1,6.1,0,0,0-1.3-4,5.28,5.28,0,0,0-4.28-1.59H29a4.88,4.88,0,0,0-4.2,1.93,7.71,7.71,0,0,0-1.39,4.71V195.2A17.12,17.12,0,0,0,25.7,204a39.51,39.51,0,0,0,5.75,7.6c2.33,2.43,4.82,4.9,7.51,7.34a69,69,0,0,1,7.49,8,41.61,41.61,0,0,1,5.75,9.69,30.42,30.42,0,0,1,2.3,12.14v22.5c0,5.25-1.31,9.05-3.86,11.43s-6.35,3.6-11.33,3.6H28c-5,0-8.79-1.17-11.37-3.43s-3.83-6-3.83-11.09v-8.53c0-.37.4-.79,1.22-1.3a8,8,0,0,1,4.2-.8c3.48,0,5.24.68,5.24,2.1v8.53a5.78,5.78,0,0,0,1.39,4,5.55,5.55,0,0,0,4.37,1.56h8.9a4.88,4.88,0,0,0,4.19-1.9,8,8,0,0,0,1.39-4.71V248.27a17.37,17.37,0,0,0-2.27-8.45,51.88,51.88,0,0,0-5.75-8.22c-2.35-2.72-4.82-5.41-7.43-8s-5.1-5.3-7.43-8A50.41,50.41,0,0,1,15,207.34a17.4,17.4,0,0,1-2.27-8.45V180q0-7.87,3.83-11.45C19.18,166.2,23,165,28,165H39.31c5,0,8.78,1.14,11.33,3.41s3.86,6,3.86,11.08v8.56c0,1.28-1.82,1.93-5.42,1.93"/><path class="cls-11" d="M49.08,190a9.61,9.61,0,0,1-3.94-.71c-1-.46-1.47-.88-1.47-1.22V179.5a6.1,6.1,0,0,0-1.3-4,5.28,5.28,0,0,0-4.28-1.59H29a4.88,4.88,0,0,0-4.2,1.93,7.71,7.71,0,0,0-1.39,4.71V195.2A17.12,17.12,0,0,0,25.7,204a39.51,39.51,0,0,0,5.75,7.6c2.33,2.43,4.82,4.9,7.51,7.34a69,69,0,0,1,7.49,8,41.61,41.61,0,0,1,5.75,9.69,30.42,30.42,0,0,1,2.3,12.14v22.5c0,5.25-1.31,9.05-3.86,11.43s-6.35,3.6-11.33,3.6H28c-5,0-8.79-1.17-11.37-3.43s-3.83-6-3.83-11.09v-8.53c0-.37.4-.79,1.22-1.3a8,8,0,0,1,4.2-.8c3.48,0,5.24.68,5.24,2.1v8.53a5.78,5.78,0,0,0,1.39,4,5.55,5.55,0,0,0,4.37,1.56h8.9a4.88,4.88,0,0,0,4.19-1.9,8,8,0,0,0,1.39-4.71V248.27a17.37,17.37,0,0,0-2.27-8.45,51.88,51.88,0,0,0-5.75-8.22c-2.35-2.72-4.82-5.41-7.43-8s-5.1-5.3-7.43-8A50.41,50.41,0,0,1,15,207.34a17.4,17.4,0,0,1-2.27-8.45V180q0-7.87,3.83-11.45C19.18,166.2,23,165,28,165H39.31c5,0,8.78,1.14,11.33,3.41s3.86,6,3.86,11.08v8.56C54.5,189.34,52.68,190,49.08,190Z"/><path class="cls-10" d="M103.06,277.41a1.69,1.69,0,0,1,1.39.71c.34.48.51,1.7.51,3.65a8.63,8.63,0,0,1-.51,3.69,1.53,1.53,0,0,1-1.22.88l-30.73-.2c-.94,0-1.39-.4-1.39-1.22V166.6A1.39,1.39,0,0,1,72.67,165h30.22c.56,0,1,.4,1.39,1.22a7.8,7.8,0,0,1,.51,3,11.2,11.2,0,0,1-.43,3.06c-.28,1-.74,1.47-1.3,1.47H82.79c-.68,0-1,.34-1,1v44c0,.68.28,1.05.85,1.05h18.51a1.59,1.59,0,0,1,1.13.76c.4.54.63,1.79.63,3.77s-.23,3.23-.63,3.74a1.74,1.74,0,0,1-1.3.8H83c-.83,0-1.22.45-1.22,1.39v45.89A1.07,1.07,0,0,0,83,277.41Z"/><path class="cls-11" d="M103.06,277.41a1.69,1.69,0,0,1,1.39.71c.34.48.51,1.7.51,3.65a8.63,8.63,0,0,1-.51,3.69,1.53,1.53,0,0,1-1.22.88l-30.73-.2c-.94,0-1.39-.4-1.39-1.22V166.6A1.39,1.39,0,0,1,72.67,165h30.22c.56,0,1,.4,1.39,1.22a7.8,7.8,0,0,1,.51,3,11.2,11.2,0,0,1-.43,3.06c-.28,1-.74,1.47-1.3,1.47H82.79c-.68,0-1,.34-1,1v44c0,.68.28,1.05.85,1.05h18.51a1.59,1.59,0,0,1,1.13.76c.4.54.63,1.79.63,3.77s-.23,3.23-.63,3.74a1.74,1.74,0,0,1-1.3.8H83c-.83,0-1.22.45-1.22,1.39v45.89A1.07,1.07,0,0,0,83,277.41Z"/><path class="cls-10" d="M147.59,220.86c3.26,0,4.9-1.62,4.9-4.88V179a5.87,5.87,0,0,0-1.13-3.49c-.77-1.05-2.18-1.59-4.28-1.59H133.64c-.82,0-1.22.35-1.22,1.05v44.88c0,.68.34,1,1.05,1Zm15.7-4.54a11,11,0,0,1-1.81,5.78,5.93,5.93,0,0,1-5.33,3,6.29,6.29,0,0,1,5.33,2.44,8.35,8.35,0,0,1,1.81,5.07v52.73c0,1.27-1.73,1.9-5.21,1.9a13.27,13.27,0,0,1-4-.51c-1.05-.34-1.56-.83-1.56-1.39v-52a5.3,5.3,0,0,0-.45-2.35c-.28-.65-1.08-1-2.35-1H133.64c-.82,0-1.22.28-1.22.85v54.48c0,.34-.51.71-1.5,1.13a13.14,13.14,0,0,1-7.85,0c-1-.42-1.48-.85-1.48-1.33V166.23c0-.82.46-1.22,1.39-1.22h28.09q6.13,0,9.19,4a14,14,0,0,1,3,8.73Z"/><path class="cls-11" d="M147.59,220.86c3.26,0,4.9-1.62,4.9-4.88V179a5.87,5.87,0,0,0-1.13-3.49c-.77-1.05-2.18-1.59-4.28-1.59H133.64c-.82,0-1.22.35-1.22,1.05v44.88c0,.68.34,1,1.05,1Zm15.7-4.54a11,11,0,0,1-1.81,5.78,5.93,5.93,0,0,1-5.33,3,6.29,6.29,0,0,1,5.33,2.44,8.35,8.35,0,0,1,1.81,5.07v52.73c0,1.27-1.73,1.9-5.21,1.9a13.27,13.27,0,0,1-4-.51c-1.05-.34-1.56-.83-1.56-1.39v-52a5.3,5.3,0,0,0-.45-2.35c-.28-.65-1.08-1-2.35-1H133.64c-.82,0-1.22.28-1.22.85v54.48c0,.34-.51.71-1.5,1.13a13.14,13.14,0,0,1-7.85,0c-1-.42-1.48-.85-1.48-1.33V166.23c0-.82.46-1.22,1.39-1.22h28.09q6.13,0,9.19,4a14,14,0,0,1,3,8.73Z"/><path class="cls-10" d="M272.65,165c1.17,0,1.73,1.28,1.73,3.86a12.85,12.85,0,0,1-.42,3.32c-.29,1-.8,1.55-1.48,1.55H252.22c-.68,0-1,.34-1,1v44c0,.68.28,1.05.85,1.05h18.51c1.16,0,1.75,1.5,1.75,4.53s-.65,4.54-1.92,4.54H252.22c-.68,0-1,.45-1,1.38v54.63c0,.37-.52.82-1.51,1.42a7.9,7.9,0,0,1-3.91.85,9,9,0,0,1-3.85-.68c-.94-.49-1.39-1-1.39-1.59V166.77c0-1.16.51-1.76,1.56-1.76Z"/><path class="cls-11" d="M272.65,165c1.17,0,1.73,1.28,1.73,3.86a12.85,12.85,0,0,1-.42,3.32c-.29,1-.8,1.55-1.48,1.55H252.22c-.68,0-1,.34-1,1v44c0,.68.28,1.05.85,1.05h18.51c1.16,0,1.75,1.5,1.75,4.53s-.65,4.54-1.92,4.54H252.22c-.68,0-1,.45-1,1.38v54.63c0,.37-.52.82-1.51,1.42a7.9,7.9,0,0,1-3.91.85,9,9,0,0,1-3.85-.68c-.94-.49-1.39-1-1.39-1.59V166.77c0-1.16.51-1.76,1.56-1.76Z"/><path class="cls-10" d="M298.33,288.07c-3.71,0-5.58-.51-5.58-1.56V166.94c0-.48.43-.91,1.25-1.3a9.61,9.61,0,0,1,4.16-.63,10.37,10.37,0,0,1,4.28.63c.88.39,1.31.82,1.31,1.3v119.2c0,1.3-1.79,1.93-5.42,1.93"/><path class="cls-11" d="M298.33,288.07c-3.71,0-5.58-.51-5.58-1.56V166.94c0-.48.43-.91,1.25-1.3a9.61,9.61,0,0,1,4.16-.63,10.37,10.37,0,0,1,4.28.63c.88.39,1.31.82,1.31,1.3v119.2C303.75,287.44,302,288.07,298.33,288.07Z"/><path class="cls-10" d="M366.82,286.14c0,.48-.42.9-1.22,1.33a9.78,9.78,0,0,1-4,.6,7.83,7.83,0,0,1-3.94-.71,3.78,3.78,0,0,1-1.48-1.39c0-.12-.51-2-1.56-5.67s-2.38-8.19-3.94-13.61-3.23-11.25-5-17.54-3.43-12.11-5-17.47-2.89-9.83-3.91-13.43-1.59-5.47-1.59-5.59c-.11-.34-.22-.54-.34-.59s-.17.14-.17.59v73.48c0,.37-.48.76-1.41,1.22a8.89,8.89,0,0,1-4,.71,10.7,10.7,0,0,1-3.94-.6c-1-.43-1.47-.91-1.47-1.5V167.11a1.65,1.65,0,0,1,1.3-1.76,18.32,18.32,0,0,1,4.11-.34c3.49,0,5.47.48,5.92,1.39q5.4,20.07,10,36.14,1.92,6.81,3.75,13.36c1.24,4.36,2.32,8.24,3.23,11.7s1.73,6.21,2.38,8.36.93,3.29.93,3.41a7.83,7.83,0,0,0,.37.87c.12.23.17-.11.17-1V166.77c0-1.16,1.79-1.76,5.42-1.76s5.58.65,5.58,1.93Z"/><path class="cls-11" d="M366.82,286.14c0,.48-.42.9-1.22,1.33a9.78,9.78,0,0,1-4,.6,7.83,7.83,0,0,1-3.94-.71,3.78,3.78,0,0,1-1.48-1.39c0-.12-.51-2-1.56-5.67s-2.38-8.19-3.94-13.61-3.23-11.25-5-17.54-3.43-12.11-5-17.47-2.89-9.83-3.91-13.43-1.59-5.47-1.59-5.59c-.11-.34-.22-.54-.34-.59s-.17.14-.17.59v73.48c0,.37-.48.76-1.41,1.22a8.89,8.89,0,0,1-4,.71,10.7,10.7,0,0,1-3.94-.6c-1-.43-1.47-.91-1.47-1.5V167.11a1.65,1.65,0,0,1,1.3-1.76,18.32,18.32,0,0,1,4.11-.34c3.49,0,5.47.48,5.92,1.39q5.4,20.07,10,36.14,1.92,6.81,3.75,13.36c1.24,4.36,2.32,8.24,3.23,11.7s1.73,6.21,2.38,8.36.93,3.29.93,3.41a7.83,7.83,0,0,0,.37.87c.12.23.17-.11.17-1V166.77c0-1.16,1.79-1.76,5.42-1.76s5.58.65,5.58,1.93Z"/><path class="cls-10" d="M209.6,251.44c.93,0,1.28-.6,1.05-1.76,0-.12-.17-1.53-.51-4.28s-.8-6.24-1.31-10.55-1.1-9.07-1.75-14.31-1.28-10.38-1.93-15.37-1.19-9.61-1.64-13.77-.83-7.4-1-9.61c-.12-.94-.23-1.33-.34-1.22s-.26.51-.37,1.22c-.23,2.21-.6,5.41-1.14,9.61s-1.07,8.76-1.64,13.77-1.22,10.12-1.93,15.37-1.3,10-1.84,14.31-1,7.85-1.3,10.63-.51,4.25-.51,4.37c0,1.05.34,1.59,1,1.59Zm-7.68-87.11c4.08,0,6.86.65,8.3,1.92a7.17,7.17,0,0,1,2.53,4.54c0,.23.19,2.07.62,5.5s.91,7.85,1.47,13.27,1.25,11.5,2,18.31,1.53,13.77,2.35,20.86,1.59,14.06,2.35,20.86,1.42,12.9,2,18.23,1.05,9.67,1.39,12.93.54,5,.54,5.07-.23.54-1,1a10.33,10.33,0,0,1-4.28.6,10.48,10.48,0,0,1-4.11-.51A3.26,3.26,0,0,1,215,286c0-.11-.14-1.39-.42-3.85s-.62-5.11-1-8-.68-5.58-1-8-.42-3.85-.42-4.2c-.12-.82-.54-1.21-1.22-1.21H193.56c-.94,0-1.45.34-1.59,1,0,.23-.17,1.56-.51,4s-.71,5.1-1.05,8-.68,5.62-1,8.11-.43,3.83-.43,3.94c-.11.34-.51.68-1.13,1.05a11.89,11.89,0,0,1-4.45.51,12.84,12.84,0,0,1-4.37-.43c-.59-.31-.82-.62-.71-1,0-.11.17-1.81.54-5.07s.82-7.57,1.47-12.9,1.34-11.45,2.1-18.26S184,236,184.82,228.81s1.62-14.11,2.44-20.94,1.53-12.9,2.1-18.31,1.08-9.78,1.47-13.1.63-5.1.63-5.33a7.6,7.6,0,0,1,2.44-4.88c1.38-1.27,4.08-1.92,8-1.92"/><path class="cls-10" d="M413.28,251.44c.94,0,1.28-.6,1.05-1.76,0-.12-.17-1.53-.51-4.28s-.79-6.24-1.3-10.55-1.11-9.07-1.76-14.31-1.28-10.38-1.93-15.37-1.19-9.61-1.64-13.77-.83-7.4-1.05-9.61c-.12-.94-.23-1.33-.34-1.22a2.42,2.42,0,0,0-.37,1.22c-.23,2.21-.6,5.41-1.14,9.61s-1.07,8.76-1.64,13.77-1.22,10.12-1.93,15.37-1.3,10-1.84,14.31-1,7.85-1.3,10.63-.51,4.25-.51,4.37c0,1.05.34,1.59,1.05,1.59Zm-7.68-87.11c4.08,0,6.86.65,8.3,1.92a7.17,7.17,0,0,1,2.53,4.54c0,.23.2,2.07.62,5.5s.91,7.85,1.48,13.27,1.24,11.5,2,18.31,1.53,13.77,2.35,20.86,1.59,14.06,2.35,20.86,1.42,12.9,2,18.23,1,9.67,1.38,12.93.54,5,.54,5.07-.22.54-1,1a10.33,10.33,0,0,1-4.28.6,10.48,10.48,0,0,1-4.11-.51,3.09,3.09,0,0,1-1.13-.88c0-.11-.15-1.39-.43-3.85s-.62-5.11-1-8-.68-5.58-1-8-.42-3.85-.42-4.2c-.12-.82-.54-1.21-1.22-1.21H397.24c-.94,0-1.45.34-1.59,1,0,.23-.17,1.56-.51,4s-.71,5.1-1.05,8-.68,5.62-1,8.11-.43,3.83-.43,3.94c-.11.34-.51.68-1.13,1.05a11.89,11.89,0,0,1-4.45.51,12.84,12.84,0,0,1-4.37-.43c-.59-.31-.82-.62-.71-1,0-.11.17-1.81.54-5.07s.82-7.57,1.48-12.9,1.33-11.45,2.09-18.26,1.53-13.77,2.36-20.95,1.61-14.11,2.43-20.94,1.53-12.9,2.1-18.31,1.08-9.78,1.48-13.1.62-5.1.62-5.33a7.6,7.6,0,0,1,2.44-4.88c1.39-1.27,4.08-1.92,8-1.92"/><g class="cls-12"><rect class="cls-13" x="66.73" y="296.34" width="308.75" height="31.52"/></g></svg>